<svg width="742" height="281" viewBox="0 0 742 281" fill="none" xmlns="http://www.w3.org/2000/svg">
<g clip-path="url(#clip0_2_6)">
<path d="M394.887 274.009C405.897 274.793 414.277 258.368 419.725 230.374C420.239 227.009 425.115 226.979 424.215 231.45C419.281 250.01 414.548 282.613 391.241 280.939C366.96 279.202 361.441 249.672 363.343 209.325L372.78 38.9489C373.281 29.8992 361.67 28.3167 361.956 23.0467C362.056 21.1569 364.072 20.1736 366.045 19.559C377.885 16.9931 385.364 11.0932 389.582 11.4005C392.17 11.5848 393.3 14.6885 393.028 19.5897C391.898 39.9476 383.362 182.391 381.674 212.92C380.816 228.377 375.44 272.642 394.873 274.025L394.887 274.009Z" fill="white"/>
<path d="M479.481 273.057C490.491 273.84 498.871 257.416 504.319 229.422C504.833 226.057 509.709 226.026 508.809 230.497C503.875 249.057 499.142 281.661 475.835 279.986C451.555 278.25 446.035 248.719 447.937 208.372L457.374 37.9963C457.875 28.9466 446.264 27.3641 446.55 22.0941C446.65 20.2042 448.666 19.2209 450.639 18.6063C462.479 16.0405 469.958 10.1405 474.176 10.4478C476.764 10.6322 477.894 13.7358 477.622 18.6371C476.492 38.9949 467.956 181.439 466.268 211.968C465.41 227.424 460.034 271.689 479.467 273.072L479.481 273.057Z" fill="white"/>
<path d="M42.4972 263.623C42.4972 265.129 40.8814 267.018 39.2513 267.018H3.24592C1.94469 267.018 0 265.129 0 263.623C0 258.338 11.6825 257.585 11.6825 248.52V120.104C11.6825 53.6373 45.4143 20.3887 81.434 20.3887C108.688 20.3887 131.395 39.6557 131.724 59.6755C132.053 91.7872 86.9535 84.9807 86.9535 120.104C86.9535 159.759 183.959 138.618 183.959 207.343C183.959 240.208 160.923 270.045 125.89 270.045C90.8572 270.045 73.6552 252.299 68.7935 233.416C65.5476 220.572 69.1224 209.248 76.5722 205.1C78.5169 203.594 85.0088 202.826 89.8705 202.826C93.1164 202.826 95.7046 203.21 95.7046 204.332C95.7046 209.233 78.8315 215.286 81.7486 230.774C84.0221 242.481 99.2651 259.475 124.904 259.475C154.103 259.475 166.757 236.059 166.757 214.149C166.757 154.09 72.6686 172.22 72.6686 122.378C72.6686 82.338 114.837 91.0343 114.837 61.5653C114.837 44.941 102.84 30.2219 80.4473 30.2219C51.2484 30.2219 31.1294 66.0978 31.1294 120.488V248.52C31.1294 257.585 42.4829 258.338 42.4829 263.623H42.4972Z" fill="white"/>
<path d="M734.793 201.75C733.235 200.183 728.03 199.4 724.126 199.4C721.524 199.4 719.436 199.799 719.436 200.967C719.436 206.052 732.963 212.321 730.618 228.392C728.802 240.546 716.576 258.169 696.014 258.169C672.606 258.169 662.454 233.877 662.454 211.153C662.454 208.219 662.639 205.484 662.954 202.887H653.045C651.472 202.887 650.028 202.611 648.712 202.119C648.712 202.78 648.655 203.425 648.655 204.101C648.655 238.195 667.129 269.139 695.227 269.139C723.325 269.139 737.11 250.717 741.013 231.127C743.616 217.806 740.756 206.052 734.765 201.735L734.793 201.75Z" fill="white"/>
<path d="M223.497 219.819C234.207 243.234 253.339 258.722 276.375 258.722C303.944 258.722 327.638 236.812 338.991 205.084C339.964 202.442 341.265 202.442 342.237 202.442C344.182 202.442 345.812 204.332 345.812 207.343C345.812 214.887 325.378 270.045 272.171 270.045C228.373 270.045 195.928 232.664 195.928 180.163C195.928 127.663 226.743 90.2661 269.254 90.2661C301.041 90.2661 324.406 111.792 324.406 135.96C324.406 170.714 251.738 207.343 230.646 218.298L223.511 219.804L223.497 219.819ZM214.088 173.741C214.088 187.707 216.361 200.552 220.58 212.26C258.544 194.882 308.505 159.391 309.478 137.097C310.121 119.351 292.276 98.5783 270.226 98.5783C239.726 98.5783 214.102 129.553 214.102 173.741H214.088Z" fill="white"/>
<path d="M649.613 214.042C650.07 212.367 650.485 210.677 650.871 208.956H651.844C651.972 209.033 652.044 209.387 652.044 210.016C654.875 206.467 658.907 204.009 662.868 203.348L662.225 150.034C661.896 137.573 662.554 129.261 662.554 116.416C662.554 111.884 661.252 108.857 658.335 108.857C654.446 108.857 649.255 114.895 637.902 118.675C626.219 100.545 608.374 89.5901 587.612 89.5901C547.702 89.5901 514.3 126.603 514.3 179.487C514.3 232.372 547.717 269.753 587.612 269.753C616.267 269.753 638.46 249.703 648.326 218.452C648.54 216.9 648.984 215.425 649.613 214.027V214.042ZM589.885 259.183C559.714 259.183 533.117 228.592 533.117 182.514C533.117 136.436 559.07 100.176 589.885 100.176C620.7 100.176 644.065 130.767 644.065 176.845C644.065 222.923 621.029 259.183 589.885 259.183Z" fill="white"/>
</g>
<defs>
<clipPath id="clip0_2_6">
<rect width="742" height="281" fill="white"/>
</clipPath>
</defs>
</svg>
